
<svg width="600" height="200" viewBox="0 0 600 200" xmlns="http://www.w3.org/2000/svg">
  <defs>
    <linearGradient id="g" x1="0" y1="0" x2="1" y2="1">
      <stop offset="0%" stop-color="#7a5cff"/>
      <stop offset="100%" stop-color="#00D4FF"/>
    </linearGradient>
  </defs>
  <rect width="100%" height="100%" fill="white"/>
  <g transform="translate(20,30)">
    <circle cx="60" cy="70" r="55" fill="url(#g)" />
    <path d="M60 35c18 0 33 12 33 27 0 22-27 22-27 40 0 4-12 4-12 0 0-20 27-22 27-40 0-8-9-15-21-15-10 0-19 7-21 16-1 5-13 3-12-2 3-16 17-26 33-26z" fill="white" opacity="0.95"/>
    <text x="120" y="60" font-family="Inter,system-ui,Segoe UI,Roboto,Helvetica,Arial,sans-serif" font-size="40" font-weight="700" fill="#111">Café de Maison</text>
    <text x="120" y="100" font-family="Inter,system-ui,Segoe UI,Roboto,Helvetica,Arial,sans-serif" font-size="18" fill="#444">Specialty Coffee • Việt Nam</text>
  </g>
</svg>
